<svg xmlns="http://www.w3.org/2000/svg" width="1em" height="1em" viewBox="0 0 15 15"><path fill="white" d="M9.358 2.145a8.2 8.2 0 0 0-3.716 0c-.706-.433-1.245-.632-1.637-.716a2.2 2.2 0 0 0-.51-.053a1.3 1.3 0 0 0-.232.028l-.01.002l-.004.002h-.003l.137.481l-.137-.48a.5.5 0 0 0-.32.276a3.12 3.12 0 0 0-.159 2.101A3.35 3.35 0 0 0 2 5.93c0 1.553.458 2.597 1.239 3.268c.547.47 1.211.72 1.877.863a2.3 2.3 0 0 0-.116.958v.598c-.407.085-.689.058-.89-.008c-.251-.083-.444-.25-.629-.49a5 5 0 0 1-.27-.402l-.057-.093a9 9 0 0 0-.224-.354c-.19-.281-.472-.633-.928-.753l-.484-.127l-.254.968l.484.127c.08.02.184.095.355.346a7 7 0 0 1 .19.302l.068.11c.094.152.202.32.327.484c.253.33.598.663 1.11.832c.35.116.748.144 1.202.074V14.5a.5.5 0 0 0 .5.5h4a.5.5 0 0 0 .5-.5v-3.562c0-.316-.014-.605-.103-.874c.663-.14 1.322-.39 1.866-.86c.78-.676 1.237-1.73 1.237-3.292v-.001a3.35 3.35 0 0 0-.768-2.125a3.12 3.12 0 0 0-.159-2.1a.5.5 0 0 0-.319-.277l-.137.48c.137-.48.136-.48.135-.48l-.002-.001l-.004-.002l-.009-.002l-.075-.015a1 1 0 0 0-.158-.013a2.2 2.2 0 0 0-.51.053c-.391.084-.93.283-1.636.716"/></svg>