<svg width="20" height="20" viewBox="0 0 18 20" fill="none" xmlns="http://www.w3.org/2000/svg">
<path d="M17.9994 7.46114C17.9994 6.32124 17.6334 5.25043 16.9347 4.31779C17.2008 3.41969 17.2674 2.27979 17.2008 0.967185C17.1676 0.414508 16.735 0 16.2027 0C15.9032 0 13.3746 0.0345423 11.9106 1.38169C10.6463 1.1399 9.31544 1.1399 8.01784 1.38169C6.58716 0.0345423 4.05851 0 3.72579 0C3.19344 0 2.76091 0.414508 2.72764 0.967185C2.62783 2.27979 2.72764 3.41969 2.99381 4.31779C2.29511 5.28497 1.92912 6.35579 1.92912 7.46114C1.92912 9.8791 3.72579 12.0553 6.45407 13.0915C6.35426 13.2988 6.28771 13.5406 6.22117 13.7824C3.32653 13.4715 1.96239 10.7427 1.89585 10.639C1.66295 10.1209 1.06405 9.91364 0.564979 10.19C0.0659027 10.4318 -0.133728 11.0535 0.132446 11.5717C0.19899 11.7444 2.02893 15.4404 6.05481 15.8549V18.9637C6.05481 19.5509 6.48735 20 7.05296 20H12.8755C13.4411 20 13.8737 19.5509 13.8737 18.9637V14.8532C13.8737 14.2314 13.7406 13.6442 13.5077 13.1261C16.2027 12.0553 17.9994 9.91364 17.9994 7.46114Z" fill="#505F79"/>
</svg>
